<?xml version="1.0" standalone="no"?>
<!DOCTYPE svg PUBLIC "-//W3C//DTD SVG 20010904//EN"
 "http://www.w3.org/TR/2001/REC-SVG-20010904/DTD/svg10.dtd">
<svg version="1.0" xmlns="http://www.w3.org/2000/svg"
 width="260.000000pt" height="260.000000pt" viewBox="0 0 260.000000 260.000000"
 preserveAspectRatio="xMidYMid meet">
<metadata>
Created by potrace 1.11, written by Peter Selinger 2001-2013
</metadata>
<g transform="translate(0.000000,260.000000) scale(0.100000,-0.100000)"
fill="#000000" stroke="none">
<path d="M1140 2579 c0 -11 11 -35 25 -53 14 -18 25 -37 25 -42 0 -5 -5 -2
-10 6 -9 13 -10 13 -10 0 1 -25 26 -50 51 -50 25 0 65 20 42 20 -7 0 -13 7
-13 15 0 8 7 15 15 15 8 0 15 -5 15 -10 0 -13 73 -2 78 11 2 5 8 7 13 3 5 -3
9 19 9 50 l0 56 -120 0 c-115 0 -120 -1 -120 -21z"/>
<path d="M1520 2588 c0 -7 5 -30 11 -50 7 -27 15 -38 29 -38 17 0 20 -7 20
-43 0 -24 -3 -47 -7 -51 -11 -11 -12 -106 -1 -106 5 0 11 6 14 14 6 15 23 4
76 -46 10 -10 18 -16 18 -13 0 2 12 -8 28 -22 56 -53 132 -83 132 -53 0 7 7 7
21 0 17 -10 25 -7 51 19 21 20 34 27 39 20 3 -6 15 -8 26 -5 23 7 110 93 127
124 6 11 29 40 51 64 50 54 94 112 124 161 l23 37 -391 0 c-306 0 -391 -3
-391 -12z m470 -348 c0 -5 -5 -10 -11 -10 -5 0 -7 5 -4 10 3 6 8 10 11 10 2 0
4 -4 4 -10z"/>
<path d="M2510 2586 c-28 -15 -105 -31 -132 -27 -10 1 -18 -4 -18 -11 0 -22
34 -65 48 -61 17 6 62 -44 92 -103 14 -27 28 -50 33 -52 13 -6 7 -32 -9 -39
-8 -3 -20 -16 -25 -29 -4 -13 -16 -24 -24 -24 -9 0 -30 -7 -46 -16 -25 -13
-30 -20 -27 -47 3 -30 6 -32 39 -31 23 1 58 15 98 39 l61 38 0 188 0 189 -32
0 c-18 -1 -44 -7 -58 -14z"/>
<path d="M2306 2533 c-8 -19 14 -37 28 -23 10 10 1 40 -13 40 -5 0 -12 -8 -15
-17z"/>
<path d="M1336 2415 c4 -8 11 -15 16 -15 6 0 5 6 -2 15 -7 8 -14 15 -16 15 -2
0 -1 -7 2 -15z"/>
<path d="M803 2060 c-22 -9 -22 -11 -24 -262 0 -139 -4 -316 -8 -393 -6 -120
-9 -136 -19 -113 -8 20 -9 43 -1 83 14 76 -4 124 -29 79 -8 -15 -10 -15 -15 1
-5 11 -13 14 -27 10 -24 -8 -70 34 -70 63 0 26 -24 44 -52 40 -19 -2 -24 -10
-26 -43 -4 -47 -17 -66 -27 -36 -6 21 -14 23 -88 23 -35 0 -39 3 -62 49 -30
58 -50 63 -60 12 l-6 -36 -30 44 c-20 31 -29 56 -29 86 0 50 -17 63 -84 63
-42 0 -46 -2 -52 -27 -3 -16 -10 -39 -14 -53 -8 -25 -8 -25 -9 5 -2 68 -34
134 -63 135 -5 0 -8 -403 -8 -895 l0 -895 1300 0 1300 0 0 571 c0 452 -3 570
-12 567 -7 -3 -14 -17 -16 -32 -2 -15 -9 -25 -15 -23 -14 4 -24 45 -26 98 0
20 -9 47 -20 60 l-18 23 -7 -66 c-5 -46 -12 -68 -23 -72 -9 -4 -17 -5 -19 -3
-2 2 -5 73 -7 158 -3 144 -5 157 -27 187 -19 26 -28 30 -49 25 -14 -3 -29 -8
-33 -10 -5 -2 -8 -73 -8 -158 0 -131 -2 -154 -16 -159 -13 -5 -14 -9 -4 -21
16 -19 28 -255 13 -255 -22 0 -31 22 -21 56 6 25 5 46 -7 79 -8 25 -14 49 -13
53 3 10 -25 72 -33 72 -4 0 -10 -10 -14 -22 -6 -22 -7 -21 -21 10 -8 17 -15
32 -17 32 -1 0 0 -29 1 -65 3 -46 0 -65 -8 -65 -7 0 -10 7 -6 15 3 9 -3 24
-14 35 -10 10 -26 38 -34 62 l-14 43 -4 -55 c-3 -49 -6 -55 -27 -58 -33 -5
-41 7 -44 71 -1 31 -6 57 -10 57 -4 0 -11 10 -16 22 -6 17 -10 8 -16 -42 -7
-60 -8 -63 -17 -35 -9 31 -13 71 -16 168 -2 43 -6 57 -17 57 -12 0 -15 -16
-15 -85 0 -74 -3 -86 -20 -97 -11 -7 -20 -22 -20 -33 1 -20 1 -20 15 -1 17 22
18 16 15 -44 -1 -19 -6 -39 -12 -45 -8 -7 -9 -6 -4 3 5 7 5 24 2 38 -5 19 -11
24 -26 19 -17 -5 -20 -2 -20 22 0 15 -5 35 -10 43 -8 12 -10 11 -10 -7 0 -13
-3 -23 -7 -24 -5 0 -29 -2 -55 -3 -26 -1 -53 -7 -59 -13 -13 -13 -2 -56 13
-47 6 4 8 -3 6 -17 -1 -13 -11 -25 -20 -27 -15 -3 -18 4 -19 35 0 21 -6 70
-13 108 -12 70 -12 70 -19 30 -4 -22 -7 -71 -7 -110 -1 -65 -2 -69 -16 -50
-11 14 -14 33 -10 68 3 26 1 47 -4 47 -5 0 -25 -8 -44 -17 -30 -15 -36 -23
-36 -50 0 -39 16 -43 32 -8 8 18 14 22 19 13 4 -7 3 -18 -3 -25 -6 -8 -8 -16
-5 -20 8 -8 -11 -43 -23 -43 -6 0 -10 9 -10 21 0 11 -4 18 -8 15 -5 -3 -15 6
-22 20 -8 13 -20 22 -27 20 -20 -8 -26 14 -9 33 20 22 10 32 -46 50 -21 7 -47
24 -58 38 -11 14 -28 26 -38 27 -9 1 -28 8 -42 17 -27 18 -104 33 -157 30 -26
-1 -33 4 -43 32 -10 24 -14 27 -17 15 -6 -25 -19 -22 -28 5 l-8 22 -4 -22 c-2
-13 -9 -23 -14 -23 -6 0 -8 8 -5 18 4 12 -2 26 -18 41 -31 30 -44 141 -49 423
-4 244 -5 248 -91 247 -28 0 -61 -4 -73 -9z"/>
<path d="M2524 1929 c-32 -17 -75 -39 -96 -50 -40 -21 -81 -66 -72 -81 3 -5
-1 -17 -9 -26 -22 -25 -31 -70 -18 -86 10 -11 7 -18 -11 -31 -20 -15 -21 -16
-3 -11 11 3 37 8 57 12 21 3 36 9 34 13 -2 3 8 7 22 7 31 2 69 9 130 26 l42
12 0 123 c0 68 -4 123 -9 123 -4 0 -35 -14 -67 -31z m-134 -249 c0 -5 -7 -10
-15 -10 -8 0 -15 5 -15 10 0 6 7 10 15 10 8 0 15 -4 15 -10z"/>
</g>
</svg>
